<?xml version="1.0" standalone="no"?>
<!DOCTYPE svg PUBLIC "-//W3C//DTD SVG 20010904//EN"
 "http://www.w3.org/TR/2001/REC-SVG-20010904/DTD/svg10.dtd">
<svg version="1.0" xmlns="http://www.w3.org/2000/svg"
 width="700.000000pt" height="700.000000pt" viewBox="0 0 700.000000 700.000000"
 preserveAspectRatio="xMidYMid meet">
<metadata>
Created by potrace 1.14, written by Peter Selinger 2001-2017
</metadata>
<g transform="translate(0.000000,700.000000) scale(0.100000,-0.100000)"
fill="#000000" stroke="none">
<path d="M3725 6903 c-396 -68 -722 -368 -821 -755 -22 -86 -24 -97 -29 -228
-7 -212 44 -399 162 -584 24 -37 43 -69 41 -71 -2 -1 -37 -10 -78 -19 -300
-70 -571 -236 -769 -471 -67 -79 -151 -197 -151 -211 0 -4 -6 -15 -13 -23 -18
-21 -85 -172 -108 -242 -31 -93 -58 -224 -66 -311 -13 -151 -8 -756 6 -833 25
-129 83 -250 173 -357 l39 -48 -38 0 c-239 -2 -377 -46 -501 -162 l-39 -36
-23 56 c-52 128 -169 270 -288 349 -234 155 -548 174 -791 48 -202 -105 -349
-290 -406 -511 -43 -166 -21 -383 52 -527 61 -122 160 -239 261 -309 23 -16
42 -30 42 -32 0 -1 -23 -17 -51 -35 -151 -98 -270 -275 -312 -464 -22 -97 -25
-844 -4 -905 18 -52 53 -95 97 -118 34 -18 158 -19 3375 -22 2966 -2 3344 -1
3380 13 50 19 89 54 115 105 19 37 20 59 20 443 0 248 -4 426 -11 463 -25 135
-97 276 -197 385 l-51 56 40 17 c62 28 145 115 180 191 53 112 50 260 -8 367
-31 56 -103 131 -158 163 -87 52 -123 55 -617 55 -252 0 -458 2 -458 5 0 3 14
24 31 48 40 55 74 130 95 209 14 54 17 125 18 498 l1 434 71 41 c154 88 201
133 251 240 25 54 28 71 28 165 0 98 -3 110 -33 171 -71 147 -214 238 -377
240 l-50 0 -49 100 c-127 260 -351 488 -618 629 -89 47 -312 128 -362 132 -22
2 -21 6 25 73 112 167 170 357 170 560 0 119 -6 164 -33 270 -95 369 -403 661
-788 745 -81 18 -282 19 -375 3z m-2260 -5103 c17 -27 33 -50 36 -50 4 0 9 -6
12 -14 4 -11 -14 -14 -93 -14 l-99 0 52 63 c29 35 54 64 57 64 3 1 19 -21 35
-49z"/>
</g>
</svg>
