<?xml version="1.0" standalone="no"?>
<!DOCTYPE svg PUBLIC "-//W3C//DTD SVG 20010904//EN"
 "http://www.w3.org/TR/2001/REC-SVG-20010904/DTD/svg10.dtd">
<svg version="1.0" xmlns="http://www.w3.org/2000/svg"
 width="900.000000pt" height="900.000000pt" viewBox="0 0 900.000000 900.000000"
 preserveAspectRatio="xMidYMid meet">
<metadata>
Created by potrace 1.14, written by Peter Selinger 2001-2017
</metadata>
<g transform="translate(0.000000,900.000000) scale(0.100000,-0.100000)"
fill="#000000" stroke="none">
<path d="M4482 8352 l-2012 -2 2 -263 3 -262 615 -2 615 -3 3 -3325 2 -3325
-22 -5 c-13 -3 -292 -4 -621 -3 l-597 3 0 -262 0 -263 2030 0 2030 0 -2 260
-3 261 -605 -1 c-333 0 -611 4 -618 8 -10 7 -12 679 -10 3330 l3 3323 615 2
615 2 3 261 c2 243 1 262 -15 265 -10 2 -924 3 -2031 1z"/>
</g>
</svg>
